<svg width="92" height="27" fill="none" xmlns="http://www.w3.org/2000/svg"><path d="M17.811 26.384H0V.517h5.469V21.58h12.342v4.804z" fill="#fff"/><path d="M15.856 13.45c0-2.118.271-4.015.813-5.69.542-1.675 1.318-3.08 2.328-4.213a9.92 9.92 0 013.77-2.623C24.243.308 25.92 0 27.791 0c1.995 0 3.732.333 5.21.998 1.503.64 2.747 1.552 3.732 2.734 1.01 1.183 1.762 2.6 2.255 4.25.517 1.65.776 3.473.776 5.469 0 2.118-.284 4.015-.85 5.69-.542 1.676-1.33 3.092-2.365 4.25-1.035 1.133-2.291 2.008-3.77 2.624-1.478.59-3.14.886-4.988.886-1.995 0-3.745-.32-5.247-.96-1.478-.666-2.723-1.59-3.733-2.772-.985-1.182-1.724-2.599-2.217-4.25-.492-1.65-.739-3.473-.739-5.468zm5.802 0c0 1.282.123 2.452.37 3.511.246 1.06.615 1.97 1.108 2.735a5.191 5.191 0 001.884 1.773c.789.42 1.713.628 2.772.628 1.946 0 3.461-.665 4.545-1.995s1.626-3.547 1.626-6.651c0-1.232-.11-2.378-.333-3.437-.221-1.06-.59-1.97-1.108-2.734A5.015 5.015 0 0030.6 5.469c-.763-.443-1.7-.665-2.808-.665-1.922 0-3.424.69-4.508 2.07-1.084 1.379-1.626 3.571-1.626 6.577zm31.8-.664h10.568v11.603a9.613 9.613 0 01-1.884 1.145c-.666.296-1.38.554-2.144.776-.739.197-1.502.345-2.29.444-.79.098-1.565.147-2.329.147-1.773 0-3.436-.258-4.988-.776a10.972 10.972 0 01-4.028-2.402c-1.133-1.108-2.033-2.512-2.698-4.212-.64-1.7-.96-3.72-.96-6.06 0-2.44.394-4.509 1.182-6.208.788-1.725 1.81-3.117 3.067-4.176A11.8 11.8 0 0151.204.74 15.667 15.667 0 0155.897 0c1.6 0 3.005.123 4.212.37 1.232.221 2.193.443 2.882.665L61.846 5.58a15.887 15.887 0 00-2.254-.554c-.838-.148-1.885-.222-3.141-.222-1.158 0-2.217.16-3.178.48a6.184 6.184 0 00-2.513 1.478c-.714.69-1.268 1.59-1.663 2.698-.394 1.108-.59 2.451-.59 4.028 0 1.527.196 2.833.59 3.917.395 1.083.924 1.983 1.59 2.697a6.375 6.375 0 002.364 1.515c.887.32 1.823.48 2.809.48.665 0 1.33-.073 1.995-.221.69-.148 1.269-.382 1.737-.702v-4.471l-6.134-.592v-3.325zm13.677.664c0-2.118.271-4.015.813-5.69.542-1.675 1.318-3.08 2.328-4.213a9.92 9.92 0 013.77-2.623C75.522.308 77.197 0 79.07 0c1.995 0 3.732.333 5.21.998 1.503.64 2.747 1.552 3.732 2.734 1.01 1.183 1.761 2.6 2.254 4.25.517 1.65.776 3.473.776 5.469 0 2.118-.283 4.015-.85 5.69-.542 1.676-1.33 3.092-2.365 4.25-1.034 1.133-2.29 2.008-3.769 2.624-1.478.59-3.14.886-4.988.886-1.996 0-3.745-.32-5.248-.96-1.478-.666-2.722-1.59-3.732-2.772-.985-1.182-1.724-2.599-2.217-4.25-.493-1.65-.739-3.473-.739-5.468zm5.801 0c0 1.282.124 2.452.37 3.511.246 1.06.616 1.97 1.109 2.735a5.191 5.191 0 001.884 1.773c.788.42 1.712.628 2.772.628 1.946 0 3.46-.665 4.545-1.995 1.084-1.33 1.626-3.547 1.626-6.651 0-1.232-.111-2.378-.333-3.437-.222-1.06-.591-1.97-1.109-2.734a5.014 5.014 0 00-1.921-1.811c-.764-.443-1.7-.665-2.808-.665-1.922 0-3.425.69-4.509 2.07-1.084 1.379-1.626 3.571-1.626 6.577z" fill="#fff"/></svg>