<svg width="62" height="19" fill="none" xmlns="http://www.w3.org/2000/svg"><path d="M12.13 17.967H0V.352h3.724v14.344h8.405v3.271z" fill="#0DBC91"/><path d="M10.798 9.16c0-1.443.185-2.735.554-3.875.369-1.141.897-2.098 1.585-2.87A6.756 6.756 0 0115.504.63C16.51.21 17.65 0 18.926 0c1.36 0 2.542.226 3.548.68 1.024.436 1.87 1.056 2.542 1.862.688.805 1.2 1.77 1.535 2.894.352 1.124.529 2.365.529 3.724 0 1.443-.193 2.734-.58 3.875-.368 1.141-.905 2.106-1.61 2.894a7.147 7.147 0 01-2.567 1.787c-1.006.402-2.139.604-3.397.604-1.359 0-2.55-.218-3.573-.655a7.153 7.153 0 01-2.542-1.887c-.67-.805-1.174-1.77-1.51-2.894-.335-1.124-.503-2.365-.503-3.724zm3.95 0c0 .872.085 1.67.253 2.39.167.722.419 1.343.755 1.863.335.52.763.922 1.283 1.207.537.286 1.166.428 1.887.428 1.326 0 2.357-.453 3.095-1.359.739-.905 1.108-2.415 1.108-4.53 0-.838-.076-1.618-.227-2.34-.15-.72-.402-1.342-.755-1.862a3.415 3.415 0 00-1.308-1.233c-.52-.302-1.158-.453-1.913-.453-1.308 0-2.332.47-3.07 1.41-.738.939-1.107 2.432-1.107 4.479zm21.656-.453h7.197v7.901a6.546 6.546 0 01-1.283.78c-.453.202-.94.378-1.46.53-.503.133-1.023.234-1.56.301-.537.067-1.065.1-1.585.1-1.208 0-2.34-.175-3.397-.528a7.473 7.473 0 01-2.743-1.635c-.772-.755-1.384-1.712-1.837-2.87-.436-1.157-.654-2.532-.654-4.126 0-1.661.268-3.07.805-4.228.537-1.174 1.233-2.122 2.088-2.843A8.036 8.036 0 0134.87.503 10.67 10.67 0 0138.065 0c1.09 0 2.047.084 2.869.252.839.15 1.493.302 1.963.453l-.78 3.095a10.82 10.82 0 00-1.535-.378c-.57-.1-1.284-.15-2.14-.15-.788 0-1.51.108-2.163.327a4.211 4.211 0 00-1.712 1.006c-.486.47-.864 1.082-1.132 1.837-.268.755-.403 1.67-.403 2.743 0 1.04.135 1.93.403 2.667.268.739.63 1.35 1.082 1.837.47.47 1.007.814 1.61 1.032a5.588 5.588 0 001.913.327c.453 0 .906-.05 1.359-.15.47-.101.864-.26 1.183-.479v-3.045l-4.178-.402V8.707zm9.315.453c0-1.443.184-2.735.553-3.875.37-1.141.898-2.098 1.586-2.87A6.756 6.756 0 0150.424.63C51.431.21 52.572 0 53.847 0c1.359 0 2.541.226 3.548.68 1.023.436 1.87 1.056 2.541 1.862.688.805 1.2 1.77 1.535 2.894C61.825 6.56 62 7.8 62 9.16c0 1.443-.193 2.734-.579 3.875-.369 1.141-.906 2.106-1.61 2.894a7.147 7.147 0 01-2.567 1.787c-1.007.402-2.14.604-3.397.604-1.36 0-2.55-.218-3.574-.655a7.152 7.152 0 01-2.541-1.887c-.671-.805-1.175-1.77-1.51-2.894-.336-1.124-.503-2.365-.503-3.724zm3.95 0c0 .872.084 1.67.252 2.39.168.722.42 1.343.755 1.863s.763.922 1.283 1.207c.537.286 1.166.428 1.888.428 1.325 0 2.357-.453 3.095-1.359.738-.905 1.107-2.415 1.107-4.53 0-.838-.075-1.618-.226-2.34-.151-.72-.403-1.342-.755-1.862a3.414 3.414 0 00-1.309-1.233c-.52-.302-1.157-.453-1.912-.453-1.309 0-2.332.47-3.07 1.41-.739.939-1.108 2.432-1.108 4.479z" fill="#0DBC91"/></svg>